<mxfile host="app.diagrams.net" modified="2023-07-29T15:08:52.467Z" agent="Mozilla/5.0 (Windows NT 10.0; Win64; x64) AppleWebKit/537.36 (KHTML, like Gecko) Chrome/114.0.0.0 Safari/537.36" version="21.6.6" etag="KcjU1hgYb2KDZ8TSMqBH" type="github">
  <diagram name="第 1 页" id="VZeUdW6FXVAz6RMtUrAE">
    <mxGraphModel>
      <root>
        <mxCell id="0" />
        <mxCell id="1" parent="0" />
      </root>
    </mxGraphModel>
  </diagram>
</mxfile>
